PathFileType	4	(X/Y/Z)	s02c0301.trc
DataRate	CameraRate	NumFrames	NumMarkers	Units	OrigDataRate	OrigDataStartFrame	OrigNumFrames
200	200	4	51	mm	200	750	2000
Frame#	Time	racr			lacr			c7			jug			rlel			rdr			llel			ldr			s2			lic			ric			lasi			rasi			rpsi			lpsi			rgt			lgt			rth1			rth2			rth3			rth4			rlfc			rmfc			rsh1			rsh2			rsh3			rsh4			rlmal			rmmal			rcal			rtoe			rmt5			rmt1			lth1			lth2			lth4			lth3			llfc			lmfc			lsh1			lsh2			lsh3			lsh4			llmal			lmmal			lcal			ltoe			lmt5			SBIKE			LBIKE			RBIKE			
		X1	Y1	Z1	X2	Y2	Z2	X3	Y3	Z3	X4	Y4	Z4	X5	Y5	Z5	X6	Y6	Z6	X7	Y7	Z7	X8	Y8	Z8	X9	Y9	Z9	X10	Y10	Z10	X11	Y11	Z11	X12	Y12	Z12	X13	Y13	Z13	X14	Y14	Z14	X15	Y15	Z15	X16	Y16	Z16	X17	Y17	Z17	X18	Y18	Z18	X19	Y19	Z19	X20	Y20	Z20	X21	Y21	Z21	X22	Y22	Z22	X23	Y23	Z23	X24	Y24	Z24	X25	Y25	Z25	X26	Y26	Z26	X27	Y27	Z27	X28	Y28	Z28	X29	Y29	Z29	X30	Y30	Z30	X31	Y31	Z31	X32	Y32	Z32	X33	Y33	Z33	X34	Y34	Z34	X35	Y35	Z35	X36	Y36	Z36	X37	Y37	Z37	X38	Y38	Z38	X39	Y39	Z39	X40	Y40	Z40	X41	Y41	Z41	X42	Y42	Z42	X43	Y43	Z43	X44	Y44	Z44	X45	Y45	Z45	X46	Y46	Z46	X47	Y47	Z47	X48	Y48	Z48	X49	Y49	Z49	X50	Y50	Z50	X51	Y51	Z51	
750	3.7500	701.300349	1227.431235	-67.997107	770.854419	1246.334570	-416.680309	749.460633	1277.083412	-243.839986	666.783013	1161.274412	-255.056138	573.797805	988.521111	-45.918133	719.752265	857.614908	-119.434655	659.268469	1043.704706	-595.659621	727.838315	847.200963	-516.151706	215.757992	1198.770219	-353.822735	370.288034	1177.658883	-473.478441	311.276659	1183.788422	-195.051119	398.163572	1130.037199	-447.422594	361.562044	1144.684760	-213.359499	243.753508	1258.957412	-306.702489	272.067690	1266.880353	-387.746500	277.809024	1110.492474	-163.592001	299.027878	1091.447684	-520.162865	356.013721	1056.190671	-142.648515	431.985216	1011.601941	-136.588985	475.171412	944.888856	-103.811023	455.771532	1030.232633	-159.608433	555.548912	814.155915	-128.379905	561.741933	799.339379	-241.449094	517.749609	705.925986	-119.534097	494.400122	623.541114	-145.509450	435.481715	561.210740	-151.774922	512.665827	620.476552	-180.783989	366.631259	472.865665	-166.625395	384.409566	488.105172	-246.482747	289.268381	437.462508	-212.917070	568.514295	381.971351	-183.011104	453.377293	383.434381	-132.320701	491.208844	396.203866	-237.861974	381.365087	965.118641	-513.194160	430.576039	893.541899	-506.324941	460.824410	905.602846	-490.602549	437.277609	804.994585	-506.075849	456.531792	705.618042	-487.834746	444.845627	676.348508	-385.234002	392.609625	618.777715	-511.717830	349.449998	544.939660	-498.389742	272.821387	497.715538	-505.800504	362.555727	534.839008	-460.686967	181.788548	423.456457	-499.946270	192.927056	410.978825	-420.759594	109.712895	446.256115	-456.869475	228.597655	184.507465	-435.252340	161.507082	261.701385	-503.699220	-127.493796	871.722682	-311.228893	32.941729	83.686977	-515.001672	33.091613	82.424785	-114.818949	
751	3.7550	701.822505	1224.570037	-68.413495	769.649663	1248.256179	-417.350504	749.110637	1276.940921	-244.330809	667.202030	1160.815267	-256.437561	572.276604	987.021347	-46.176413	719.486786	857.720052	-119.791586	660.288730	1043.799968	-595.626392	727.746773	846.953674	-516.100137	217.052040	1196.024573	-354.189026	369.540601	1178.166676	-472.854745	311.394464	1179.501132	-194.181432	397.809197	1130.166991	-447.641562	361.982374	1141.123857	-213.316677	243.143796	1257.352968	-304.596516	271.338389	1265.953647	-385.222898	276.824333	1106.062302	-163.675016	300.697153	1091.468936	-521.288200	354.746512	1051.054129	-142.892736	430.359035	1005.850719	-136.582161	473.085452	938.277783	-105.179930	454.423710	1024.382748	-159.389468	552.042543	807.952561	-128.962309	560.348742	792.209111	-240.296727	514.483397	700.115511	-119.852782	492.947619	616.816921	-144.279671	434.890712	553.711824	-151.526207	512.427468	613.062979	-178.968633	369.173998	462.514291	-167.226351	387.318223	477.701498	-246.512708	292.027613	426.753010	-213.528534	571.055841	371.013372	-182.903516	456.003273	373.009561	-132.701472	494.396122	385.404194	-237.533918	384.496408	966.326397	-513.514931	434.482279	895.307006	-505.869222	464.464824	907.766030	-490.035079	442.530067	806.861523	-505.707895	463.061637	707.949112	-487.248752	451.448781	678.347150	-384.637590	398.789116	621.696388	-510.900293	353.911260	548.770617	-497.545443	276.379035	503.316619	-505.194597	366.528819	538.624388	-459.743398	183.042759	432.255217	-500.447830	193.485581	419.827048	-420.903720	111.092056	456.630527	-457.955379	224.777308	192.838785	-434.811725	159.569378	270.938904	-503.556585	-127.679431	871.607694	-311.826813	32.921029	83.540972	-514.961753	33.076829	82.407232	-114.864749	
752	3.7600	702.467671	1221.652430	-69.095622	768.423131	1250.110374	-418.177216	748.769167	1276.922317	-245.004145	667.667030	1160.399614	-257.995934	570.940678	985.347962	-46.112010	719.171980	857.706223	-119.941706	661.395158	1043.892249	-595.905141	729.651243	847.912862	-518.413794	216.801148	1192.692461	-352.946408	368.577090	1178.526825	-472.251890	311.653531	1175.254103	-193.091712	397.256638	1130.010748	-447.682485	362.521217	1137.485566	-213.064613	242.455560	1255.049166	-302.367430	271.160012	1263.580378	-383.412114	275.950897	1101.502499	-163.465086	301.841893	1091.193274	-521.959018	353.599954	1045.616794	-143.305106	428.894373	1000.058758	-136.717671	470.984174	931.606744	-106.051432	453.283695	1018.520124	-159.224129	549.061464	801.563599	-129.871748	558.645496	785.706562	-241.081006	512.276012	693.903941	-120.265710	492.270882	609.895147	-143.440536	435.052328	546.162401	-151.301915	512.683194	605.594642	-177.669599	371.929903	452.482103	-167.340288	389.951471	467.674083	-246.496487	294.609309	416.720264	-213.744174	573.572423	359.419560	-183.390470	458.555338	362.338450	-133.069943	497.042733	374.741463	-237.702058	387.113715	966.894472	-513.213493	438.112346	896.684156	-505.443455	467.878957	909.488424	-489.438908	447.569031	808.428494	-505.629630	469.593008	709.950573	-486.470227	458.020936	680.176538	-384.125057	404.740070	624.710614	-510.086028	357.996072	553.012911	-496.796065	279.313283	509.369334	-504.922154	370.290573	542.670155	-458.868089	183.954726	441.568968	-500.819980	194.170103	428.894880	-421.068132	112.511745	467.126306	-458.401605	221.718289	201.542500	-434.967038	157.643262	280.660320	-503.770958	-127.819992	871.374824	-312.392600	32.945860	83.285750	-515.037803	33.071853	82.367183	-114.907669	
753	3.7650	703.208417	1218.659030	-69.901466	767.174364	1251.878215	-419.315679	748.403816	1277.035171	-245.901325	668.164900	1160.038384	-259.737386	570.032282	983.760758	-45.595535	718.794680	856.951529	-120.636472	662.519852	1044.050790	-596.562104	729.294891	847.535206	-518.820750	215.946574	1189.199187	-351.122801	367.521774	1178.444676	-471.625389	311.978123	1170.909979	-192.021543	396.659310	1129.523513	-447.368517	363.206669	1133.821786	-212.670774	241.326785	1252.535074	-299.841927	269.511662	1261.553335	-380.804403	275.352466	1096.387442	-163.542259	302.636557	1090.587814	-522.472678	353.818294	1040.705440	-142.328742	427.879262	994.214374	-136.908209	469.216944	924.729204	-107.231170	452.412285	1012.745550	-158.984984	546.669375	795.271503	-130.926863	556.850777	779.406669	-242.099519	511.471639	687.226634	-120.564757	492.588449	602.689129	-143.373756	436.193227	538.265641	-150.846450	513.084333	598.093695	-178.236578	374.898121	442.462328	-166.943707	392.537292	457.845133	-245.999281	296.941397	407.247876	-213.696252	575.803767	347.002449	-184.189903	460.866598	351.299537	-133.272047	499.838468	364.305650	-236.911734	389.390916	967.149269	-513.021569	441.469873	897.750008	-505.096260	470.895648	911.034733	-488.814877	452.508445	809.688453	-505.593692	476.240016	711.641049	-485.532941	463.511176	682.497267	-380.940918	410.439104	627.886940	-509.293632	361.824199	557.440197	-496.207276	282.072403	515.716723	-503.916225	373.665182	546.685549	-458.240664	184.588935	451.270493	-501.037119	194.973051	438.218615	-421.234525	113.484320	477.743533	-458.518774	219.576566	210.912875	-435.478447	156.016693	290.730259	-504.102103	-128.000541	871.136643	-313.104483	32.955797	82.955407	-515.134975	33.024369	82.353570	-114.952207	
